<?xml version="1.0" standalone="no"?><!DOCTYPE svg PUBLIC "-//W3C//DTD SVG 1.1//EN" "http://www.w3.org/Graphics/SVG/1.1/DTD/svg11.dtd"><svg t="1777365471025" class="icon" viewBox="0 0 1024 1024" version="1.1" xmlns="http://www.w3.org/2000/svg" p-id="29762" xmlns:xlink="http://www.w3.org/1999/xlink" width="256" height="256"><path d="M767.96 959.99c-10.35 0-20.48-4.04-28.12-11.68h-0.01L512.42 720.88 284.16 948.31c-11.43 11.44-28.46 14.84-43.4 8.63-14.94-6.19-24.59-20.63-24.59-36.79V144.24c0-44.25 36-80.24 80.25-80.24h431.16c44.25 0 80.25 36 80.25 80.24v775.91c0 16.16-9.66 30.61-24.6 36.79a39.705 39.705 0 0 1-15.27 3.05z m9.16-48.95h0.14-0.14z m-480.7-794.33c-15.19 0-27.54 12.35-27.54 27.54v744.82l205.44-205.45C484.38 673.54 497.77 668 512 668s27.63 5.56 37.69 15.62l205.43 205.43V144.24c0-15.18-12.35-27.54-27.54-27.54H296.42z" fill="#c5151c" p-id="29763"></path><path d="M646.74 332.28H377.27c-14.55 0-26.35-11.8-26.35-26.35s11.8-26.35 26.35-26.35h269.47c14.55 0 26.35 11.8 26.35 26.35s-11.8 26.35-26.35 26.35zM646.74 467.02H377.27c-14.55 0-26.35-11.8-26.35-26.35s11.8-26.35 26.35-26.35h269.47c14.55 0 26.35 11.8 26.35 26.35s-11.8 26.35-26.35 26.35z" fill="#c5151c" p-id="29764"></path></svg>