<?xml version="1.0" standalone="no"?><!DOCTYPE svg PUBLIC "-//W3C//DTD SVG 1.1//EN" "http://www.w3.org/Graphics/SVG/1.1/DTD/svg11.dtd"><svg t="1776851008305" class="icon" viewBox="0 0 1024 1024" version="1.1" xmlns="http://www.w3.org/2000/svg" p-id="2086" width="256" height="256" xmlns:xlink="http://www.w3.org/1999/xlink"><path d="M742.292179 612.412235c-12.468706-6.324706-74.450824-36.743529-86.016-40.899764-11.565176-4.336941-20.058353-6.324706-28.370824 6.445176-8.432941 12.649412-32.406588 40.96-39.936 49.453177-7.348706 8.493176-14.757647 9.517176-27.226353 3.252705-74.089412-37.044706-122.639059-66.078118-171.429647-149.865411-12.950588-22.287059 12.890353-20.660706 37.044706-68.788706 4.096-8.432941 2.048-15.661176-1.204706-22.106353-3.132235-6.324706-28.310588-68.306824-38.731294-93.605647-10.24-24.515765-20.781176-21.082353-28.370823-21.564236-7.348706-0.421647-15.661176-0.421647-24.154353-0.421647a46.561882 46.561882 0 0 0-33.67153 15.661177c-11.444706 12.649412-43.971765 43.128471-43.971764 105.170823 0 61.861647 45.116235 121.916235 51.2 130.288942 6.445176 8.493176 88.847059 135.529412 215.341176 190.343529 79.992471 34.514824 111.314824 37.466353 151.311059 31.503059 24.274824-3.614118 74.450824-30.358588 84.871529-59.934118 10.420706-29.515294 10.420706-54.814118 7.288471-59.994353-3.072-5.662118-11.444706-8.794353-23.973647-14.938353z m241.904941-298.767059A512.120471 512.120471 0 0 0 512.072885 0h-2.288941A510.795294 510.795294 0 0 0 0.012649 514.409412a513.746824 513.746824 0 0 0 54.934589 228.412235v173.718588c0 29.033412 23.552 52.585412 52.585411 52.585412H281.311473c70.475294 35.538824 149.202824 54.512941 228.472471 54.874353h2.409411c68.427294 0 134.806588-13.251765 197.330824-39.152941A510.976 510.976 0 0 0 1024.012649 514.409412a510.433882 510.433882 0 0 0-39.755294-200.824471z m-156.491294 516.818824a445.620706 445.620706 0 0 1-315.632941 129.505882h-2.108236a449.596235 449.596235 0 0 1-208.414117-52.404706l-10.11953-5.421176H121.868649v-169.562353l-5.421176-9.999059a449.716706 449.716706 0 0 1-52.404706-208.474353 445.319529 445.319529 0 0 1 129.505882-317.741176 444.596706 444.596706 0 0 1 316.536471-132.336941h2.108235a445.741176 445.741176 0 0 1 316.897883 131.072 445.861647 445.861647 0 0 1 131.19247 319.006117 446.343529 446.343529 0 0 1-132.517647 316.29553z" p-id="2087" fill="#ffffff"></path></svg>